v 0.00509363918706782 -0.26481099538416 -0.255416105715224
v -0.249077454154735 -0.177661472729505 -0.189481213874685
v 0.189279624469986 -0.149263895688041 0.31018859478177
v 0.247675000290406 -0.210571653694259 0.128401562989278
v 0.249544391819174 -0.0868172178997682 -0.385289306987274
v -0.114721458533432 -0.0726169813393733 -0.409777502155865
v -0.185202927180191 -0.121285852505807 0.331933421032153
v -0.360262432436941 -0.0797420588979383 -0.265609238973762
v -0.422157564218585 -0.0847329567569717 0.0797141280278289
v -0.183516259051466 -0.0485460910652191 0.431484264604968
v -0.366413098026705 -0.0863405377400807 0.204500629464468
v 0.239185575300526 -0.0556676263541678 0.432859804379038
v 0.456392191316978 -0.0859496918868486 0.076420905828241
v -0.330832488901404 0.0339046101175468 -0.391431141613826
v -0.403275141999267 -0.00682365879118747 -0.222244131848245
v 0.015043837318113 0.00546787456410946 0.482795359386403
v 0.266534764555257 0.0595400504264787 0.456087135595117
v 0.488129049697273 0.00369505108377142 0.0435118089263086
v 0.334092451338464 -0.00697412415346674 -0.309133049457382
v 0.234270923016373 0.044084112916536 -0.396901754928799
v -0.129476191035198 0.0489291993879216 -0.42710631240017
v -0.443666452611151 0.0478873338891197 0.0825509906442277
v 0.496042523015248 0.0448566522207856 0.144048471894104
v -0.299557093110617 0.140691612807199 -0.282177261430321
v -0.305267775040805 0.0823519713877801 0.3457373333402
v 0.354692612557579 0.0936583798935027 0.365598610954253
v 0.334823586615581 0.168919341799838 0.249749457240642
v 0.393897601187706 0.105709041596451 -0.10631531102108
v 0.163610328612099 0.170996188285878 -0.327700625033715
v -0.244240926461827 0.13416897154321 -0.404429714874805
v -0.345670426093664 0.146269709032319 0.14464577966644
v -0.0913058562045646 0.12419913144132 0.44206218456759
v -0.0114679484175203 0.221949972334194 -0.247098259692075
v 0.310791671659807 0.151987181688025 -0.0404418330452685
v -0.0155350288383226 0.199219633981748 -0.00961450197400836
v -0.145640221951459 0.194006050695994 0.145348980804508
v -0.0229033788027721 0.228617218283274 0.139343002409621
v 0.18085908244993 -0.24816314268603 0.0426610161705865
v -0.0245182021541629 -0.272504358797532 -0.0992879780335825
v -0.224933668505997 -0.230977815261457 0.102650663454745
v 0.142832452837505 -0.212531262161481 0.143734447060875
v -0.0119311538522389 -0.187039490154708 0.158324638912563
vn -0.02136099 -0.9197195 -0.3919947
vn -0.4443245 -0.8518586 -0.2773316
vn 0.2016482 -0.8514851 0.4840569
vn 0.2457186 -0.9064331 0.3435133
vn 0.5007936 -0.5608957 -0.6592433
vn -0.1642124 -0.4829993 -0.8600848
vn -0.1487127 -0.8772799 0.4563601
vn -0.6584514 -0.6243509 -0.4202711
vn -0.8276474 -0.5603932 0.03097056
vn -0.4154984 -0.4434151 0.794194
vn -0.712922 -0.5001335 0.491537
vn 0.3224649 -0.6150901 0.7195002
vn 0.7606987 -0.6277196 0.1652438
vn -0.7134873 0.1057861 -0.6926364
vn -0.9659896 -0.07486887 -0.2475048
vn -0.02960025 -0.1266761 0.9915024
vn 0.4737399 0.06323894 0.8783913
vn 0.9663447 -0.01739535 -0.256662
vn 0.85534 -0.03452323 -0.5169154
vn 0.4206135 0.2730911 -0.8651622
vn -0.00992376 0.1393853 -0.9901885
vn -0.9532831 0.2464375 0.1746996
vn 0.9497747 0.2731817 0.1526426
vn -0.5300737 0.8367133 -0.137596
vn -0.7004555 0.3616498 0.6152816
vn 0.6538891 0.3912237 0.6475902
vn 0.3750263 0.9113013 0.1699569
vn 0.68342 0.6713744 -0.286694
vn 0.2781868 0.7908975 -0.5450627
vn -0.2397161 0.6774918 -0.695371
vn -0.4262275 0.8969086 0.1178342
vn -0.1446149 0.7622449 0.6309273
vn -0.02297012 0.9929769 -0.1160571
vn 0.2589969 0.9628067 -0.07696668
vn -0.1164265 0.9909248 -0.0671775
vn -0.2508656 0.967063 0.04307649
vn -0.03398421 0.9989722 0.02999272
vn 0.2156962 -0.9699946 0.1121857
vn -0.1455793 -0.9890789 -0.02301199
vn -0.2889082 -0.9255216 0.2448303
vn -0.0251751 -0.9306806 0.3649657
vn -0.03775612 -0.9292386 0.3675462
f 8//8 2//2 9//9
f 5//5 1//1 6//6
f 6//6 2//2 8//8
f 11//11 7//7 10//10
f 10//10 7//7 3//3
f 10//10 3//3 12//12
f 12//12 3//3 13//13
f 13//13 3//3 4//4
f 6//6 8//8 14//14
f 14//14 8//8 15//15
f 15//15 8//8 9//9
f 16//16 10//10 12//12
f 18//18 13//13 19//19
f 19//19 13//13 5//5
f 19//19 5//5 20//20
f 20//20 5//5 6//6
f 20//20 6//6 21//21
f 21//21 6//6 14//14
f 22//22 15//15 9//9
f 22//22 9//9 11//11
f 22//22 11//11 10//10
f 22//22 10//10 25//25
f 16//16 12//12 17//17
f 17//17 12//12 13//13
f 17//17 13//13 26//26
f 26//26 13//13 23//23
f 23//23 13//13 18//18
f 21//21 14//14 30//30
f 14//14 15//15 22//22
f 25//25 10//10 32//32
f 32//32 10//10 16//16
f 32//32 16//16 17//17
f 23//23 18//18 28//28
f 28//28 18//18 19//19
f 28//28 19//19 20//20
f 29//29 20//20 21//21
f 30//30 14//14 24//24
f 24//24 14//14 22//22
f 24//24 22//22 31//31
f 31//31 22//22 25//25
f 32//32 17//17 26//26
f 26//26 23//23 27//27
f 27//27 23//23 28//28
f 29//29 21//21 30//30
f 31//31 25//25 32//32
f 32//32 26//26 27//27
f 27//27 28//28 34//34
f 34//34 28//28 29//29
f 29//29 28//28 20//20
f 33//33 29//29 30//30
f 33//33 30//30 24//24
f 34//34 29//29 33//33
f 35//35 33//33 24//24
f 34//34 33//33 35//35
f 35//35 24//24 31//31
f 27//27 34//34 37//37
f 37//37 34//34 35//35
f 37//37 35//35 36//36
f 36//36 35//35 31//31
f 27//27 37//37 32//32
f 32//32 37//37 36//36
f 32//32 36//36 31//31
f 5//5 38//38 1//1
f 6//6 1//1 2//2
f 1//1 38//38 39//39
f 5//5 13//13 38//38
f 1//1 39//39 2//2
f 39//39 38//38 40//40
f 39//39 40//40 2//2
f 13//13 4//4 38//38
f 38//38 4//4 41//41
f 38//38 41//41 42//42
f 38//38 42//42 40//40
f 40//40 9//9 2//2
f 40//40 42//42 7//7
f 40//40 7//7 11//11
f 40//40 11//11 9//9
f 4//4 3//3 7//7
f 4//4 7//7 41//41
f 41//41 7//7 42//42
