v -0.527191638463439 -0.114015536931388 0.033426632619984
v -0.266835538781258 -0.125466613983088 0.228489527544604
v 0.0195146036633969 -0.0248302067383272 0.283804213742339
v -0.0648832945425117 -0.200293947173959 -0.50920272412908
v -0.281561922939042 -0.139425520877583 -0.334706732774158
v 0.491821093801409 -0.132223548101224 -0.0260930908654318
v 0.245463512371867 -0.110456005465412 -0.359954369318124
v 0.292796968857681 -0.0569302316304538 -0.431486293169645
v -0.0171514050023259 -0.146080535812639 -0.567174766654257
v -0.432155816149807 -0.0972734916708514 -0.293293331772811
v -0.246784462010604 -0.10244399059926 0.348148179047526
v 0.377759680429999 -0.0790758529695421 0.341565066713321
v -0.0176257081794099 -0.0136842778792497 -0.568232394141986
v -0.262709714733482 -0.0247369761554562 -0.38850185084928
v -0.535226291995023 -0.0437033599305056 -0.267807364222662
v -0.690835322451717 -0.0539890989461924 -0.0117776014549484
v 0.513411149270102 -0.0265461451686604 0.336254118383385
v 0.740807461360268 -0.0551234686998684 0.0131201599979427
v 0.631446406042614 -0.0721838795411265 -0.164329545881915
v 0.218616435253876 -0.0497206473262601 -0.462012215300709
v 0.682483994178879 -0.0682257007558578 0.150124286707263
v -0.639872515298886 0.00576349834742738 -0.209006671689262
v -0.711630512923986 0.00158771187203455 -0.0371155245523121
v -0.607904837393931 -0.0329364076810791 0.177070896611236
v -0.292597592863003 -0.00228493500490315 0.406945433552291
v 0.00893634438762634 0.0490969058464108 0.307224604538513
v 0.796376605977497 0.0366290196030313 0.0132921449522016
v 0.459269983857708 0.0390428484340246 -0.382882652595025
v -0.18541493116778 0.0585573327913615 -0.362091268934986
v -0.65451297883183 0.0289281281338809 0.153912705273638
v 0.116902161643787 0.0347427165011863 0.291049653090997
v 0.589440612015386 0.0976964164274411 0.286957420259758
v 0.66678101925417 0.0496605223547046 0.258174040632562
v 0.709083288604796 0.0108700362796597 -0.20170416139547
v 0.183447940065731 0.23255520103361 -0.315589837671424
v -0.66192374929805 0.0757620250698397 -0.128874184746412
v -0.588762219922144 0.100017859767399 0.130079655050515
v 0.705393590699676 0.142949504757784 -0.0167766324870034
v 0.340055406453715 0.225378221832628 -0.277631395951317
v -0.522444486099474 0.146823782710775 -0.0219899755064359
v -0.258521364832964 0.111960592241315 0.394022165169033
v 0.694716718688557 0.116104392695898 -0.123950254863255
v 0.483135050344395 0.129264348790171 -0.324060971334809
v -0.1253633239989 0.150875185612568 -0.08735936113027
v -0.362129362984448 0.0882620477085467 0.317890773580932
v 0.0947933140113266 0.24212460158157 -0.358383144826411
v -0.220445351940888 0.0774686991434976 -0.291893383755504
v 0.0466242411451213 0.252688613781324 -0.227026321183353
v -0.0214204323089937 0.25500226410401 -0.0677740806504347
v 0.147707369050979 0.216497313839091 0.069561750013817
v -0.105116685405348 0.288258049300585 0.107206526281219
v -0.270928040074493 0.195620462139979 0.0668422544943643
v 0.415732952078781 0.2368590918205 0.069730961039266
v 0.0624223949069437 0.134079533536602 0.155812228892808
v 0.524022020683572 0.166857764715387 0.201112279985324
v -0.175503996296839 0.228293929037849 0.226984949423005
v -0.298092691188863 0.177078911704641 0.163568140098103
v -0.0585654249620707 -0.251931225060959 -0.31991580859582
v -0.256886342630973 -0.156363049222293 -0.173795786220079
v -0.0432408711230842 -0.256536970875758 -0.128781026392085
v 0.10032914882619 -0.173402748452166 -0.178968460597088
v 0.223057357532022 -0.140020873863574 -0.185043328564358
v -0.147588599962567 -0.150803063454656 0.022820649635204
v 0.0948107341896557 -0.130301945460314 -0.00406893656283986
v 0.288830464319672 -0.137428832913026 0.0686051948883618
v -0.0420754799611996 -0.229155826213751 0.0987165601552736
v 0.0513910264470886 -0.191180076007308 0.118910234299042
v 0.12439396932753 -0.165216143451216 0.155747670001011
v 0.190999264366352 -0.15157865786972 0.207760782955489
v 0.0189897555359423 -0.117065195901854 0.178301717589911
vn -0.2476621 -0.9669498 0.060593
vn -0.301522 -0.9432264 0.1393144
vn 0.06521712 -0.4567851 0.8871832
vn -0.08269542 -0.8620991 -0.4999466
vn -0.4283254 -0.8591394 -0.2800302
vn 0.1589411 -0.9856322 -0.05715631
vn 0.3454612 -0.9140201 -0.212659
vn 0.4335494 -0.5351848 -0.7249911
vn -0.08283751 -0.4266347 -0.9006224
vn -0.4578012 -0.7187759 -0.5232392
vn 0.005842545 -0.7887322 0.6147092
vn -0.0010296 -0.3496494 0.9368801
vn 0.05050936 0.3768122 -0.9249116
vn -0.4823062 0.300218 -0.8229519
vn -0.5381907 -0.2344225 -0.8095658
vn -0.691865 -0.7212135 -0.03426241
vn 0.3648014 -0.2380484 0.9001405
vn 0.6183717 -0.7821455 -0.07658263
vn 0.3867439 -0.8568342 -0.3409754
vn 0.2959917 0.282621 -0.9124222
vn 0.5051134 -0.7830691 0.3628544
vn -0.7030851 0.1983416 -0.6828851
vn -0.9955752 0.03805892 -0.08591553
vn -0.5066862 -0.7057359 0.4951827
vn -0.2028222 -0.1985038 0.9588845
vn 0.3489802 0.4532038 0.8202555
vn 0.9963269 0.07552705 0.04035325
vn 0.419989 0.06502452 -0.9051967
vn -0.383431 0.7606269 -0.5238582
vn -0.7812005 0.3902586 0.4872618
vn -0.03437012 0.524508 0.8507115
vn 0.2273483 0.6028364 0.7647883
vn 0.7456252 0.1700289 0.6443083
vn 0.7537505 -0.1897131 -0.6291813
vn 0.2799034 0.7909685 -0.5440798
vn -0.6191382 0.7548645 -0.2164429
vn -0.4610324 0.8407748 0.283808
vn 0.5158657 0.8561721 0.02918449
vn 0.1862818 0.8982999 -0.3979401
vn -0.2519405 0.9646161 -0.07772902
vn -0.1196697 0.650558 0.749969
vn 0.6607778 0.6424315 -0.3881423
vn 0.3742498 0.6566554 -0.654783
vn -0.3987752 0.8489106 -0.3468848
vn -0.3419496 0.8875241 0.3088227
vn -0.1113172 0.8849707 -0.4521452
vn -0.1411443 0.9047993 -0.4017666
vn -0.292317 0.9468758 -0.1340778
vn -0.2324969 0.9516985 -0.2005368
vn 0.07845451 0.9551058 0.2856883
vn 0.0002729293 0.9797913 0.2000224
vn -0.2768169 0.9490912 -0.1503274
vn 0.1302316 0.979015 0.156746
vn 0.2100306 0.7340603 0.6457883
vn 0.1172336 0.8670693 0.4841973
vn -0.1462458 0.904563 0.4004723
vn -0.356987 0.9049959 0.2313932
vn -0.2000885 -0.9778643 -0.06120415
vn -0.267668 -0.9624282 0.04567057
vn 0.1622434 -0.9810704 0.1057256
vn 0.4083704 -0.905156 0.11801
vn 0.126245 -0.9919932 -0.003394475
vn -0.4018162 -0.9143075 0.05084868
vn 0.3467167 -0.936842 -0.04598529
vn -0.01224129 -0.9986824 -0.04983471
vn 0.01057396 -0.96905 0.2466382
vn 0.242815 -0.9212332 0.3039248
vn 0.0453031 -0.9370907 0.3461338
vn 0.03358033 -0.9821146 0.1852651
vn 0.09606349 -0.6959542 0.7116316
f 4//4 7//7 58//58
f 4//4 58//58 5//5
f 12//12 69//69 21//21
f 21//21 69//69 6//6
f 6//6 62//62 7//7
f 8//8 7//7 9//9
f 9//9 7//7 4//4
f 9//9 4//4 5//5
f 9//9 5//5 10//10
f 16//16 10//10 1//1
f 24//24 1//1 2//2
f 24//24 2//2 11//11
f 21//21 6//6 18//18
f 18//18 6//6 19//19
f 19//19 6//6 7//7
f 20//20 8//8 9//9
f 20//20 9//9 13//13
f 13//13 9//9 14//14
f 14//14 9//9 10//10
f 14//14 10//10 15//15
f 15//15 10//10 16//16
f 16//16 1//1 24//24
f 3//3 69//69 12//12
f 17//17 12//12 21//21
f 19//19 7//7 8//8
f 22//22 15//15 16//16
f 22//22 16//16 23//23
f 24//24 11//11 25//25
f 25//25 11//11 3//3
f 34//34 18//18 19//19
f 34//34 19//19 8//8
f 28//28 34//34 8//8
f 28//28 8//8 20//20
f 29//29 14//14 15//15
f 29//29 15//15 22//22
f 23//23 16//16 30//30
f 30//30 16//16 24//24
f 30//30 24//24 25//25
f 26//26 3//3 31//31
f 31//31 3//3 12//12
f 31//31 12//12 32//32
f 32//32 12//12 17//17
f 33//33 17//17 21//21
f 33//33 21//21 27//27
f 27//27 21//21 18//18
f 27//27 18//18 34//34
f 47//47 29//29 22//22
f 47//47 22//22 36//36
f 36//36 22//22 23//23
f 36//36 23//23 30//30
f 30//30 25//25 41//41
f 41//41 25//25 3//3
f 41//41 3//3 26//26
f 32//32 17//17 33//33
f 43//43 28//28 20//20
f 43//43 20//20 39//39
f 35//35 20//20 13//13
f 35//35 13//13 46//46
f 46//46 13//13 14//14
f 46//46 14//14 29//29
f 37//37 36//36 30//30
f 37//37 30//30 45//45
f 45//45 30//30 41//41
f 32//32 33//33 38//38
f 38//38 33//33 27//27
f 38//38 27//27 42//42
f 42//42 27//27 34//34
f 42//42 34//34 43//43
f 43//43 34//34 28//28
f 47//47 36//36 40//40
f 40//40 36//36 37//37
f 55//55 31//31 32//32
f 39//39 20//20 35//35
f 48//48 46//46 29//29
f 40//40 37//37 57//57
f 57//57 37//37 45//45
f 56//56 41//41 26//26
f 26//26 31//31 54//54
f 55//55 32//32 38//38
f 38//38 42//42 43//43
f 44//44 29//29 47//47
f 38//38 43//43 39//39
f 48//48 29//29 44//44
f 39//39 35//35 50//50
f 50//50 35//35 46//46
f 50//50 46//46 48//48
f 48//48 44//44 49//49
f 44//44 47//47 52//52
f 52//52 47//47 40//40
f 50//50 48//48 49//49
f 38//38 39//39 53//53
f 53//53 39//39 50//50
f 51//51 49//49 44//44
f 51//51 44//44 52//52
f 50//50 49//49 51//51
f 38//38 53//53 55//55
f 57//57 52//52 40//40
f 56//56 51//51 52//52
f 55//55 53//53 50//50
f 54//54 50//50 51//51
f 54//54 51//51 26//26
f 26//26 51//51 56//56
f 56//56 52//52 57//57
f 31//31 50//50 54//54
f 31//31 55//55 50//50
f 56//56 57//57 41//41
f 41//41 57//57 45//45
f 62//62 61//61 7//7
f 7//7 60//60 58//58
f 58//58 59//59 5//5
f 7//7 61//61 60//60
f 58//58 60//60 63//63
f 58//58 63//63 59//59
f 5//5 1//1 10//10
f 61//61 64//64 60//60
f 5//5 59//59 1//1
f 62//62 64//64 61//61
f 59//59 63//63 1//1
f 62//62 65//65 64//64
f 6//6 65//65 62//62
f 64//64 66//66 60//60
f 60//60 66//66 63//63
f 64//64 67//67 66//66
f 63//63 2//2 1//1
f 65//65 69//69 64//64
f 68//68 67//67 64//64
f 67//67 70//70 66//66
f 6//6 69//69 65//65
f 64//64 69//69 68//68
f 68//68 70//70 67//67
f 63//63 66//66 2//2
f 69//69 3//3 68//68
f 68//68 3//3 70//70
f 70//70 3//3 11//11
f 70//70 11//11 66//66
f 66//66 11//11 2//2
